<svg width="651" height="150" viewBox="0 0 651 150" fill="none" xmlns="http://www.w3.org/2000/svg">
<path d="M67.8 27V50.6L21.8 74L67.8 97.4V120.6L1.49012e-07 84V63.6L67.8 27Z" fill="#2B098B"/>
<path d="M111.398 82V135H83.3984V5.6H133.198C149.732 5.6 157.998 14.4 157.998 32V47C157.998 57.6667 154.198 64.4667 146.598 67.4C153.265 69.8 156.598 75.2667 156.598 83.8V135H128.598V86C128.598 83.3333 127.332 82 124.798 82H111.398ZM111.398 24.6V62.4H126.198C127.265 62.4 128.132 62 128.798 61.2C129.598 60.4 129.998 59.4667 129.998 58.4V28.6C129.998 27.5333 129.598 26.6 128.798 25.8C128.132 25 127.265 24.6 126.198 24.6H111.398ZM212.977 5.6H240.977V110.6C240.977 128.2 232.71 137 216.177 137H192.977C176.443 137 168.177 128.2 168.177 110.6V94.4H194.777V113.8C194.777 114.867 195.11 115.8 195.777 116.6C196.577 117.4 197.51 117.8 198.577 117.8H209.177C210.243 117.8 211.11 117.4 211.777 116.6C212.577 115.8 212.977 114.867 212.977 113.8V5.6ZM309.017 5.6C325.551 5.6 333.817 14.4 333.817 32V108.6C333.817 126.2 325.551 135 309.017 135H257.617V5.6H309.017ZM305.817 111.8V28.6C305.817 27.5333 305.417 26.6 304.617 25.8C303.951 25 303.084 24.6 302.017 24.6H285.617V115.8H302.017C303.084 115.8 303.951 115.4 304.617 114.6C305.417 113.8 305.817 112.867 305.817 111.8ZM401.088 35.4C417.621 35.4 425.888 44.2 425.888 61.8V93.4H380.488V113.8C380.488 114.867 380.821 115.8 381.488 116.6C382.288 117.4 383.221 117.8 384.288 117.8H395.288C396.354 117.8 397.221 117.4 397.888 116.6C398.688 115.8 399.088 114.867 399.088 113.8V103H425.888V110.6C425.888 128.2 417.621 137 401.088 137H378.488C361.954 137 353.688 128.2 353.688 110.6V61.8C353.688 44.2 361.954 35.4 378.488 35.4H401.088ZM380.488 75.8H399.088V57.8C399.088 56.7333 398.688 55.8 397.888 55C397.221 54.2 396.354 53.8 395.288 53.8H384.288C383.221 53.8 382.288 54.2 381.488 55C380.821 55.8 380.488 56.7333 380.488 57.8V75.8ZM485.602 37.4H511.602L490.202 135H454.802L433.402 37.4H459.402L472.602 113.2L485.602 37.4Z" fill="white"/>
<path d="M562.419 0.199995H583.819L527.219 149.4H505.819L562.419 0.199995ZM582.589 50.6V27L650.389 63.6V84L582.589 120.6V97.4L628.589 74L582.589 50.6Z" fill="#2C0892"/>
</svg>
